<svg width="694" height="586" viewBox="0 0 694 586" fill="none" xmlns="http://www.w3.org/2000/svg">
<circle cx="75" cy="75" r="75" fill="#77D97E"/>
<rect x="203" y="27" width="491" height="95" rx="47.5" fill="#77D97E"/>
<path d="M150 293C150 334.421 116.421 368 75 368C33.5786 368 0 334.421 0 293C0 251.579 33.5786 218 75 218C116.421 218 150 251.579 150 293Z" fill="#64AAFF"/>
<rect x="203" y="245" width="491" height="95" rx="47.5" fill="#64AAFF"/>
<rect x="203" y="463" width="398" height="95" rx="47.5" fill="#E15E42"/>
<path d="M75 436C116.421 436 150 469.579 150 511C150 552.421 116.421 586 75 586C33.5786 586 0 552.421 0 511C0 469.579 33.5786 436 75 436ZM75 464.096C49.1117 464.096 28.125 485.082 28.125 510.971C28.125 536.859 49.1117 557.846 75 557.846C100.888 557.846 121.875 536.859 121.875 510.971C121.875 485.082 100.888 464.096 75 464.096Z" fill="#E15E42"/>
</svg>
